<svg width="102" height="56" viewBox="0 0 102 56" fill="none" xmlns="http://www.w3.org/2000/svg">
<path fill-rule="evenodd" clip-rule="evenodd" d="M83.0706 16.083C86.1003 16.083 88.0967 18.0184 88.3409 20.7684C88.3949 21.3762 88.426 22.0412 88.3194 22.6412C88.2846 22.8373 88.1102 22.9746 87.911 22.9746H80.3311C80.2018 22.9746 80.1015 23.0889 80.1234 23.2164C80.4672 25.214 81.5672 26.0494 83.325 26.0494C83.8388 26.0494 84.364 25.8664 84.7415 25.6965C84.9508 25.6023 85.0563 25.5551 85.1257 25.5396C85.273 25.5066 85.3683 25.5126 85.5107 25.563C85.5777 25.5866 85.6561 25.6341 85.813 25.7287L86.4622 26.1206C86.8842 26.375 87.0959 26.5019 87.1827 26.6314C87.3462 26.8761 87.3408 27.1891 87.1691 27.4279C87.078 27.5545 86.8686 27.6715 86.4496 27.9047C86.135 28.0797 85.8133 28.2388 85.4776 28.359C84.3175 28.774 83.0793 28.7875 81.8324 28.5237C78.7304 27.8676 77.0808 25.3009 77.0808 22.3731C77.0809 18.9273 79.2548 16.0831 83.0706 16.083ZM83.0013 18.4881C81.585 18.4881 80.62 19.2269 80.2424 20.589C80.2059 20.7205 80.3087 20.8473 80.4451 20.8473H85.3226C85.4443 20.8472 85.5425 20.7449 85.5273 20.6241C85.3884 19.5233 84.5399 18.4881 83.0013 18.4881Z" fill="#2845C1"/>
<path d="M43.1083 11.5936C45.3083 11.5936 47.033 12.4877 48.3689 13.8778C48.4711 13.9841 48.5225 14.0373 48.5531 14.1039C48.6076 14.223 48.6022 14.377 48.5395 14.492C48.5043 14.5564 48.445 14.6105 48.326 14.7181L46.8578 16.045C46.7211 16.1685 46.6522 16.231 46.5858 16.2594C46.4566 16.3146 46.3273 16.3074 46.2046 16.239C46.1415 16.2038 46.0744 16.1289 45.9404 15.9797C45.1026 15.0465 44.1752 14.4578 43.1307 14.4578C41.9763 14.458 41.2142 15.197 41.2141 16.1668C41.2141 17.4021 42.5167 17.9703 44.0247 18.6275C46.0976 19.5309 48.5589 20.6033 48.559 23.812C48.5128 26.8608 46.157 28.6855 43.1775 28.6856C40.6937 28.6856 38.9576 27.8609 37.5855 26.4209C37.4848 26.3152 37.4344 26.2619 37.4041 26.1957C37.3505 26.0778 37.3556 25.9257 37.4168 25.8116C37.4513 25.7474 37.5097 25.693 37.6264 25.5854L39.0829 24.2429C39.2203 24.1162 39.2891 24.0525 39.3539 24.0236C39.4827 23.9662 39.6041 23.9694 39.7293 24.0343C39.7924 24.067 39.8658 24.143 40.012 24.2946C40.9169 25.2333 42.0269 25.7754 43.1541 25.7755C44.4474 25.7755 45.2325 25.0827 45.2326 23.928C45.2326 22.6632 43.9093 22.0808 42.3859 21.4108C40.3208 20.5026 37.8888 19.4327 37.8887 16.2828C37.8887 13.7191 40.0133 11.5936 43.1083 11.5936Z" fill="#2845C1"/>
<path d="M52.7238 16.5831C52.8928 16.5831 52.9773 16.5832 53.0455 16.6065C53.1721 16.6499 53.2722 16.749 53.3155 16.8756C53.3389 16.9438 53.3389 17.029 53.3389 17.1983V23.1891C53.3391 24.8748 54.2163 25.9138 55.8327 25.9139C57.4263 25.9139 58.304 24.8749 58.3041 23.1891V17.1983C58.3041 17.029 58.3042 16.9438 58.3275 16.8756C58.3709 16.749 58.4709 16.6499 58.5976 16.6065C58.6657 16.5832 58.7502 16.5831 58.9193 16.5831H60.6458C60.8152 16.5831 60.9003 16.5832 60.9685 16.6065C61.0949 16.65 61.1943 16.7492 61.2376 16.8756C61.261 16.9438 61.261 17.029 61.261 17.1983V23.0497C61.261 26.5372 59.2285 28.6854 55.8103 28.6856C52.392 28.6856 50.3821 26.5373 50.3821 23.0497V17.1983C50.3821 17.029 50.3821 16.9438 50.4055 16.8756C50.4488 16.7492 50.5482 16.65 50.6745 16.6065C50.7427 16.5832 50.8279 16.5831 50.9972 16.5831H52.7238Z" fill="#2845C1"/>
<path fill-rule="evenodd" clip-rule="evenodd" d="M29.7814 16.1113C33.1534 16.1113 34.8859 18.1209 34.886 20.6845V27.5995C34.886 27.7685 34.8858 27.8531 34.8626 27.9212C34.8192 28.0479 34.7191 28.1479 34.5925 28.1913C34.5244 28.2145 34.4397 28.2147 34.2708 28.2147H32.5676C32.3983 28.2147 32.3131 28.2146 32.245 28.1913C32.1184 28.1479 32.0192 28.0478 31.9759 27.9212C31.9526 27.8531 31.9525 27.7685 31.9525 27.5995V27.4786C31.9525 27.3752 31.9523 27.3233 31.9408 27.3012C31.9176 27.2575 31.8735 27.2384 31.8257 27.2515C31.8017 27.2584 31.7612 27.2962 31.6815 27.3714C30.9041 28.1046 29.6757 28.5607 28.4653 28.5608C26.1326 28.5608 24.5385 27.2213 24.5383 25.0736C24.5383 23.3183 25.9008 22.0012 28.3951 21.5853L31.6561 21.0345C31.827 21.0057 31.9525 20.8579 31.9525 20.6845C31.9524 19.4605 31.0283 18.6753 29.6888 18.6753C28.7856 18.6753 28.0445 19.0139 27.465 19.5848C27.3118 19.7358 27.2346 19.8111 27.1764 19.8412C27.056 19.9035 26.9557 19.9094 26.8284 19.8627C26.7669 19.8401 26.6966 19.7865 26.5564 19.6794L25.3846 18.7854C25.2593 18.6898 25.1966 18.6416 25.1555 18.5778C25.0843 18.4669 25.0691 18.2998 25.1194 18.1781C25.1484 18.1077 25.1949 18.0569 25.2871 17.9558C26.3404 16.8014 27.8975 16.1113 29.7814 16.1113ZM31.5947 23.1003L29.1808 23.503C27.957 23.7108 27.4486 24.2184 27.4484 24.9341C27.4484 25.7194 28.0726 26.2278 29.0658 26.2278C30.2378 26.2277 31.1268 25.7504 31.7175 25.0121C31.7577 24.9619 31.778 24.9367 31.814 24.8756C31.8689 24.7826 31.9275 24.616 31.9427 24.5091C31.9527 24.4392 31.9525 24.384 31.9525 24.2741V23.4035C31.9525 23.3055 31.952 23.2566 31.9379 23.2193C31.9114 23.15 31.8517 23.0985 31.7789 23.0838C31.7399 23.0759 31.6914 23.0842 31.5947 23.1003Z" fill="#2845C1"/>
<path d="M72.1916 13.673C72.3609 13.673 72.4461 13.6731 72.5143 13.6964C72.6407 13.7399 72.7401 13.8391 72.7834 13.9655C72.8067 14.0336 72.8068 14.1182 72.8068 14.2872V16.3706C72.8068 16.4289 72.8065 16.4582 72.8146 16.4817C72.8296 16.5255 72.8644 16.5594 72.9082 16.5743C72.9317 16.5824 72.9609 16.5831 73.0193 16.5831H75.749C75.9181 16.5831 76.0026 16.5832 76.0708 16.6065C76.1973 16.6499 76.2964 16.7491 76.3398 16.8756C76.3632 16.9438 76.3632 17.029 76.3632 17.1983V18.6012C76.3632 18.7703 76.3631 18.8547 76.3398 18.9229C76.2965 19.0495 76.1974 19.1496 76.0708 19.1929C76.0026 19.2162 75.918 19.2163 75.749 19.2163H73.0193C72.961 19.2163 72.9317 19.2161 72.9082 19.2241C72.8645 19.2391 72.8296 19.2731 72.8146 19.3167C72.8065 19.3403 72.8068 19.3703 72.8068 19.4289V23.9739C72.8068 25.2672 73.4995 25.7754 74.6542 25.7755C75.1071 25.7755 75.4731 25.7465 75.7763 25.6926C75.985 25.6555 76.0893 25.6372 76.1439 25.6478C76.2585 25.6699 76.3253 25.725 76.3671 25.834C76.387 25.8858 76.3866 25.9764 76.3866 26.1567V27.6843C76.3866 27.7933 76.3863 27.8478 76.371 27.9037C76.3453 27.998 76.2691 28.1016 76.1868 28.1542C76.138 28.1855 76.0958 28.199 76.0113 28.2254C75.5101 28.382 74.9151 28.4545 74.1463 28.4545C71.2361 28.4545 69.8499 26.8148 69.8499 23.9739V19.4289C69.8499 19.3703 69.8502 19.3403 69.8421 19.3167C69.827 19.2732 69.7922 19.2391 69.7485 19.2241C69.725 19.2162 69.6956 19.2163 69.6374 19.2163H68.294C68.125 19.2163 68.0404 19.2161 67.9722 19.1929C67.8456 19.1496 67.7455 19.0495 67.7022 18.9229C67.679 18.8548 67.6788 18.7701 67.6788 18.6012V17.1983C67.6788 17.029 67.6788 16.9438 67.7022 16.8756C67.7455 16.749 67.8456 16.6499 67.9722 16.6065C68.0404 16.5832 68.1249 16.5831 68.294 16.5831H69.6374C69.6957 16.5831 69.725 16.5823 69.7485 16.5743C69.7923 16.5594 69.8271 16.5255 69.8421 16.4817C69.8502 16.4582 69.8499 16.4289 69.8499 16.3706V14.2872C69.8499 14.1183 69.85 14.0336 69.8733 13.9655C69.9166 13.8389 70.0167 13.7398 70.1433 13.6964C70.2115 13.6731 70.296 13.673 70.4651 13.673H72.1916Z" fill="#2845C1"/>
<path d="M16.7294 12.1181C16.9369 12.1012 17.1332 12.2152 17.2217 12.4037C17.269 12.5045 17.2695 12.6626 17.2695 12.9779V25.0443C17.2695 25.1288 17.2695 25.1711 17.2812 25.2052C17.3029 25.2684 17.3525 25.318 17.4157 25.3397C17.4498 25.3513 17.4921 25.3514 17.5766 25.3514H22.6334C22.8024 25.3514 22.887 25.3515 22.9551 25.3748C23.0816 25.4181 23.1807 25.5175 23.2242 25.6439C23.2475 25.7121 23.2476 25.7972 23.2476 25.9666V27.6239C23.2476 27.793 23.2475 27.8775 23.2242 27.9456C23.1808 28.0722 23.0817 28.1723 22.9551 28.2157C22.887 28.2389 22.8023 28.2391 22.6334 28.2391H14.7484C14.579 28.2391 14.4939 28.239 14.4257 28.2157C14.2991 28.1723 14.1999 28.0722 14.1566 27.9456C14.1333 27.8775 14.1332 27.7929 14.1332 27.6239V14.373C14.1332 14.1373 14.1334 14.0188 14.1576 13.9109C14.2023 13.7117 14.3072 13.531 14.4578 13.3932C14.5394 13.3186 14.6414 13.2598 14.8459 13.1427L16.2078 12.3628C16.4815 12.206 16.6183 12.1271 16.7294 12.1181Z" fill="#2845C1"/>
<path d="M65.9025 16.5831C66.0716 16.5831 66.1561 16.5833 66.2242 16.6065C66.3509 16.6499 66.4509 16.749 66.4943 16.8756C66.5176 16.9438 66.5177 17.029 66.5177 17.1983V27.6093C66.5177 27.7782 66.5176 27.8629 66.4943 27.931C66.4509 28.0576 66.3509 28.1567 66.2242 28.2001C66.1561 28.2233 66.0716 28.2235 65.9025 28.2235H64.1994C64.03 28.2235 63.9449 28.2234 63.8767 28.2001C63.7502 28.1567 63.6509 28.0575 63.6076 27.931C63.5843 27.8629 63.5842 27.7783 63.5842 27.6093V17.1983C63.5842 17.029 63.5842 16.9438 63.6076 16.8756C63.6509 16.7491 63.7502 16.6499 63.8767 16.6065C63.9449 16.5832 64.03 16.5831 64.1994 16.5831H65.9025Z" fill="#2845C1"/>
<path d="M65.0621 10.7161C66.1015 10.7161 66.9564 11.5944 66.9564 12.6338C66.9561 13.6729 66.1014 14.5504 65.0621 14.5504C64.023 14.5504 63.1458 13.6729 63.1455 12.6338C63.1455 11.5945 64.0228 10.7162 65.0621 10.7161Z" fill="#2845C1"/>
<path d="M24.054 34.3081C26.0498 34.3081 27.3616 35.6518 27.3616 37.5182C27.3616 37.8549 27.3195 38.171 27.2721 38.4059C27.2584 38.474 27.1978 38.5219 27.1278 38.5219H22.3865C22.2958 38.522 22.2248 38.6018 22.2404 38.6903C22.4578 39.8964 23.2618 40.3895 24.3389 40.3896C25.06 40.3896 25.697 40.1016 26.0941 39.6595C26.1504 39.5968 26.2467 39.5841 26.3132 39.636L27.3744 40.4675C27.4384 40.5178 27.4516 40.6113 27.4 40.674C26.7226 41.497 25.6485 42.0001 24.3535 42.0001C21.8018 42.0001 20.3628 40.2327 20.3628 38.1541C20.3631 36.0475 21.7022 34.3082 24.054 34.3081ZM54.0746 34.3081C56.4123 34.3081 58.0102 36.0192 58.0105 38.1541C58.0105 40.2893 56.4125 42.0001 54.0746 42.0001C51.7369 41.9999 50.1405 40.2891 50.1405 38.1541C50.1408 36.0193 51.7371 34.3083 54.0746 34.3081ZM84.6559 34.3081C86.6512 34.3084 87.9616 35.652 87.9617 37.5182C87.9617 37.8548 87.9214 38.171 87.874 38.4059C87.8603 38.4738 87.7994 38.5215 87.7297 38.5219H82.9884C82.8976 38.5219 82.8265 38.6017 82.8422 38.6903C83.0597 39.8966 83.8634 40.3896 84.9408 40.3896C85.6619 40.3895 86.299 40.1018 86.696 39.6595C86.7524 39.5967 86.8486 39.5838 86.9151 39.636L87.9763 40.4675C88.0403 40.5178 88.0516 40.6113 88 40.674C87.3228 41.4966 86.2498 41.9999 84.9554 42.0001C82.4036 42.0001 80.9629 40.2327 80.9629 38.1541C80.9631 36.0475 82.3039 34.3081 84.6559 34.3081ZM72.271 34.3081C74.3522 34.3082 75.4216 35.5393 75.4216 37.1088V41.569C75.4212 41.6513 75.3531 41.7175 75.27 41.7175H73.7614C73.6784 41.7173 73.612 41.6512 73.6116 41.569V41.444C73.6116 41.3035 73.421 41.2296 73.3102 41.3171C72.83 41.6981 72.1393 41.9295 71.4583 41.9295C70.0186 41.9295 69.0349 41.1101 69.0346 39.7954C69.0346 38.7208 69.8766 37.9141 71.4163 37.6595L73.4856 37.3135C73.558 37.3012 73.6116 37.2379 73.6116 37.165V37.1088C73.6116 36.3596 73.0409 35.879 72.2144 35.8787C71.5716 35.8787 71.0611 36.1536 70.6839 36.6052C70.6301 36.6697 70.5338 36.6846 70.4665 36.6342L69.3798 35.8117C69.3148 35.7625 69.3017 35.6706 69.3524 35.607C70.0003 34.7993 71.0185 34.3081 72.271 34.3081ZM17.0461 32.8099C17.1291 32.8099 17.1972 32.8762 17.1977 32.9585V34.4422C17.198 34.5246 17.2661 34.5907 17.3493 34.5907H19.2414C19.3248 34.5907 19.393 34.6584 19.393 34.7411V36.0545C19.3925 36.1367 19.3245 36.203 19.2414 36.203H17.3493C17.2659 36.203 17.1977 36.2707 17.1977 36.3534V39.1161C17.1977 39.9076 17.625 40.2191 18.3373 40.2193C18.7032 40.2193 18.9783 40.1894 19.1939 40.1342C19.2976 40.1077 19.4071 40.1803 19.4076 40.2864V41.5345C19.4076 41.5939 19.3721 41.649 19.3163 41.6704C18.9783 41.8 18.5734 41.8588 18.025 41.8588C16.2288 41.8588 15.3731 40.8553 15.3731 39.1161V36.3534C15.3731 36.2707 15.3048 36.203 15.2215 36.203H14.1841C14.101 36.203 14.033 36.1367 14.0325 36.0545V34.7411C14.0325 34.6584 14.1008 34.5907 14.1841 34.5907H15.2215C15.3047 34.5907 15.3728 34.5246 15.3731 34.4422V32.9585C15.3736 32.8762 15.4416 32.8099 15.5247 32.8099H17.0461ZM46.8256 32.8099C46.9084 32.8101 46.9749 32.8763 46.9753 32.9585V34.4422C46.9756 34.5246 47.0438 34.5907 47.1269 34.5907H49.0209C49.1041 34.5909 49.1707 34.6585 49.1707 34.7411V36.0545C49.1702 36.1366 49.1038 36.2028 49.0209 36.203H47.1269C47.0436 36.2031 46.9753 36.2707 46.9753 36.3534V39.1161C46.9753 39.9079 47.4041 40.2193 48.1168 40.2193C48.4823 40.2193 48.7561 40.1893 48.9716 40.1342C49.0754 40.1076 49.1848 40.1802 49.1853 40.2864V41.5345C49.1853 41.5939 49.1498 41.649 49.094 41.6704C48.756 41.7998 48.351 41.8588 47.8027 41.8588C46.0066 41.8587 45.1508 40.8552 45.1508 39.1161V36.3534C45.1508 36.2709 45.0841 36.2033 45.001 36.203H43.9618C43.8789 36.2028 43.8125 36.1366 43.812 36.0545V34.7411C43.812 34.6585 43.8786 34.5909 43.9618 34.5907H45.001C45.0839 34.5904 45.1505 34.5244 45.1508 34.4422V32.9585C45.1512 32.8762 45.2193 32.8099 45.3024 32.8099H46.8256ZM32.8372 34.4494C33.0323 34.4494 33.2088 34.478 33.3595 34.5182C33.4219 34.5349 33.4632 34.5918 33.4636 34.6559V36.1251C33.4633 36.2223 33.3717 36.2924 33.2755 36.2737C33.0995 36.2394 32.9049 36.2175 32.6655 36.2175C31.8048 36.2178 31.2421 36.6743 30.9633 37.1161C30.9489 37.1388 30.9414 37.1653 30.9414 37.1921V41.569C30.941 41.6513 30.8729 41.7175 30.7898 41.7175H29.2811C29.1983 41.7172 29.1318 41.6511 29.1314 41.569V34.7411C29.1314 34.6586 29.198 34.591 29.2811 34.5907H30.7898C30.8731 34.5907 30.9414 34.6584 30.9414 34.7411V34.9295C30.9416 35.0636 31.1092 35.1327 31.2135 35.0472C31.642 34.6952 32.1732 34.4494 32.8372 34.4494ZM38.6287 34.4494C38.8238 34.4494 39.0003 34.478 39.151 34.5182C39.2135 34.5349 39.2548 34.5918 39.2551 34.6559V36.1251C39.2549 36.2223 39.1632 36.2924 39.067 36.2737C38.891 36.2394 38.6965 36.2175 38.457 36.2175C37.5962 36.2177 37.0336 36.6742 36.7548 37.1161C36.7404 37.1389 36.7329 37.1653 36.7329 37.1921V41.569C36.7325 41.6513 36.6644 41.7175 36.5813 41.7175H35.0727C34.9897 41.7173 34.9233 41.6512 34.9229 41.569V34.7411C34.9229 34.6585 34.9895 34.5909 35.0727 34.5907H36.5813C36.6646 34.5907 36.7329 34.6584 36.7329 34.7411V34.9295C36.7331 35.0637 36.9007 35.1328 37.005 35.0472C37.4336 34.6952 37.9647 34.4494 38.6287 34.4494ZM42.3728 34.5907C42.4562 34.5907 42.5244 34.6584 42.5244 34.7411V41.569C42.524 41.6513 42.4559 41.7175 42.3728 41.7175H40.8642C40.7812 41.7174 40.7148 41.6512 40.7144 41.569V34.7411C40.7144 34.6585 40.781 34.5909 40.8642 34.5907H42.3728ZM63.3673 34.4494C63.5624 34.4494 63.739 34.478 63.8897 34.5182C63.9521 34.5349 63.9934 34.5918 63.9938 34.6559V36.1251C63.9935 36.2223 63.9018 36.2924 63.8056 36.2737C63.6297 36.2394 63.435 36.2175 63.1956 36.2175C62.3349 36.2178 61.7723 36.6743 61.4934 37.1161C61.4791 37.1388 61.4715 37.1653 61.4715 37.1921V41.569C61.4711 41.6513 61.403 41.7175 61.3199 41.7175H59.8113C59.7284 41.7172 59.6619 41.6511 59.6615 41.569V34.7411C59.6615 34.6586 59.7282 34.591 59.8113 34.5907H61.3199C61.4033 34.5907 61.4715 34.6584 61.4715 34.7411V34.9295C61.4717 35.0636 61.6393 35.1327 61.7436 35.0472C62.1722 34.6952 62.7034 34.4494 63.3673 34.4494ZM67.1114 34.5907C67.1948 34.5907 67.263 34.6584 67.263 34.7411V41.569C67.2626 41.6513 67.1945 41.7175 67.1114 41.7175H65.6028C65.5199 41.7173 65.4534 41.6512 65.4531 41.569V34.7411C65.4531 34.6585 65.5197 34.5909 65.6028 34.5907H67.1114ZM79.1547 31.1124C79.2378 31.1128 79.3045 31.1803 79.3045 31.2628V41.569C79.3041 41.6511 79.2376 41.7172 79.1547 41.7175H77.6461C77.563 41.7175 77.4949 41.6513 77.4945 41.569V31.2628C77.4945 31.1801 77.5628 31.1124 77.6461 31.1124H79.1547ZM71.9003 38.8335C71.1447 38.9607 70.8318 39.2719 70.8318 39.7103C70.8319 40.1909 71.2161 40.5019 71.829 40.5019C72.638 40.5019 73.229 40.1363 73.5879 39.5907C73.6032 39.5672 73.6116 39.539 73.6116 39.511V38.7266C73.6112 38.6344 73.5262 38.5647 73.4344 38.5798L71.9003 38.8335ZM54.1038 36.0056C52.9065 36.0056 52.0219 36.91 52.0217 38.1541C52.0217 39.3984 52.9063 40.3045 54.1038 40.3045C55.2584 40.3043 56.1274 39.3842 56.1274 38.1541C56.1272 36.9101 55.2582 36.0057 54.1038 36.0056ZM24.012 35.7791C23.1466 35.7791 22.5541 36.223 22.3171 37.0418C22.2907 37.133 22.3622 37.2206 22.4577 37.2211H25.422C25.5073 37.2211 25.5774 37.151 25.5662 37.0671C25.4734 36.4013 24.9512 35.7793 24.012 35.7791ZM84.612 35.7791C83.747 35.7792 83.156 36.2233 82.919 37.0418C82.8925 37.1333 82.9636 37.2211 83.0596 37.2211H86.0238C86.1091 37.221 86.1775 37.1509 86.1663 37.0671C86.0734 36.4012 85.5515 35.7791 84.612 35.7791ZM41.6258 31.0001C42.2673 31.0001 42.7947 31.5377 42.7947 32.174C42.7943 32.81 42.2671 33.3461 41.6258 33.3461C40.9846 33.3461 40.4427 32.81 40.4423 32.174C40.4423 31.5378 40.9844 31.0002 41.6258 31.0001ZM66.3644 31.0001C67.0059 31.0001 67.5333 31.5377 67.5333 32.174C67.533 32.81 67.0057 33.3461 66.3644 33.3461C65.7233 33.346 65.1813 32.81 65.1809 32.174C65.1809 31.5378 65.723 31.0003 66.3644 31.0001Z" fill="#2845C1"/>
<path d="M101.134 47.1743C101.134 47.9963 101.134 48.4074 101.05 48.7838C100.894 49.4796 100.53 50.1111 100.005 50.5938C99.7213 50.8549 99.3654 51.0605 98.6536 51.4717L95.5452 53.2674C94.8328 53.6789 94.4766 53.8846 94.1083 54.0001C93.4275 54.2136 92.6978 54.2136 92.0171 54.0001C91.6487 53.8846 91.2925 53.6789 90.5802 53.2674L88.4669 52.0465C87.571 51.5291 87.1231 51.2703 86.9151 50.9708C86.5263 50.4109 86.5266 49.6683 86.916 49.1088C87.1243 48.8095 87.5725 48.5512 88.4688 48.0345L90.5872 46.8136C91.3001 46.4026 91.6566 46.1972 91.941 45.936C92.4665 45.4533 92.8317 44.8213 92.9875 44.1249C93.0718 43.7481 93.0718 43.3367 93.0718 42.5138V40.0783C93.0718 39.0442 93.0718 38.5272 93.227 38.1973C93.5172 37.5807 94.1601 37.2095 94.8392 37.2665C95.2025 37.297 95.6503 37.5555 96.5458 38.0726L98.6525 39.2889C99.3646 39.7 99.7206 39.9056 100.005 40.1667C100.53 40.6494 100.894 41.2811 101.05 41.977C101.134 42.3535 101.134 42.7646 101.134 43.5869V47.1743Z" fill="#FBC63A"/>
<path d="M8.02613 1.76596C8.70673 1.55267 9.43672 1.55257 10.1173 1.76596C10.4855 1.88145 10.8414 2.0878 11.5533 2.49908L13.6669 3.71966C14.5627 4.23715 15.011 4.49645 15.219 4.79596C15.6076 5.3558 15.6073 6.09862 15.218 6.65802C15.0096 6.95722 14.561 7.21494 13.665 7.73139L11.5465 8.95295C10.8339 9.36367 10.4776 9.56929 10.1933 9.83036C9.66779 10.3131 9.30206 10.9454 9.14629 11.6417C9.06208 12.0184 9.06245 12.4298 9.06245 13.2523V15.6886C9.06245 16.7222 9.0626 17.2393 8.90744 17.5691C8.61731 18.1857 7.97396 18.5571 7.29495 18.5002C6.93166 18.4697 6.48339 18.2109 5.5879 17.6939L3.48113 16.4773C2.76929 16.0663 2.41291 15.861 2.12894 15.5998C1.60411 15.1172 1.23938 14.4853 1.08384 13.7894C0.999697 13.413 1 13.0018 1 12.1799V8.59223C1 7.77034 0.999744 7.3591 1.08384 6.98267C1.23932 6.28692 1.60426 5.65492 2.12894 5.17227C2.41277 4.91124 2.76874 4.70582 3.48015 4.29486L6.58912 2.49908C7.30134 2.08766 7.65781 1.88144 8.02613 1.76596Z" fill="#00867A"/>
</svg>
